<?xml version="1.0" encoding="utf-8"?>
<!-- Generator: Adobe Illustrator 28.3.0, SVG Export Plug-In . SVG Version: 6.00 Build 0)  -->
<svg version="1.1" id="visual" xmlns="http://www.w3.org/2000/svg" xmlns:xlink="http://www.w3.org/1999/xlink" x="0px" y="0px"
	 viewBox="0 0 1920 3840" style="enable-background:new 0 0 1920 3840;" xml:space="preserve">
<style type="text/css">
	.st0{fill:#FFFFFF;}
	.st1{fill:#FB923C;}
</style>
<rect class="st0" width="1920" height="3840"/>
<g transform="translate(1920, 3840)">
	<path class="st1" d="M-1632,0c20.6-214.7,41.3-429.4,124.2-624.5c83-195.2,228.3-370.8,396.2-487.1
		c168-116.3,358.5-173.3,547.5-250.2C-375-1438.7-187.5-1535.3,0-1632V0H-1632z"/>
</g>
<g transform="translate(0, 0)">
	<path class="st1" d="M1632,0c-127.1,177.7-254.1,355.4-335.8,536.9c-81.7,181.5-117.9,366.7-217.9,541.4
		c-99.9,174.8-263.4,338.9-453.8,429.5C434.2,1598.3,217.1,1615.1,0,1632V0H1632z"/>
</g>
</svg>
