<?xml version="1.0" encoding="UTF-8"?>
<svg id="visual" xmlns="http://www.w3.org/2000/svg" version="1.1" viewBox="0 0 1920 1080">
  <defs>
    <style>
      .cls-1 {
        fill: #2563eb;
      }

      .cls-1, .cls-2, .cls-3, .cls-4, .cls-5, .cls-6 {
        stroke-width: 0px;
      }

      .cls-2 {
        fill: #60a5fa;
      }

      .cls-3 {
        fill: none;
      }

      .cls-4 {
        fill: #f97316;
      }

      .cls-5 {
        fill: #93c5fd;
        isolation: isolate;
        opacity: .9;
      }

      .cls-6 {
        fill: #3b82f6;
      }
    </style>
  </defs>
  <path class="cls-1" d="M1920,212.9v-11.4h0v-.2h0V0H0v1080h1920v-438.5h0v-.2h0v-219.3h0v-.6h0v-.4h0v-1.2h0v-.8h0v-1.6h0v-.4h0v-.6h0v-.2h0v-1.2h0v-.2h0v-.4h0v-.2h0v-.4h0v-.4h0v-.6h0v-.6h0v-.2h0v-1.2h0v-.6h0v-1.4h0v-.6h0v-1.4h0v-1h0v-.6h0v-1.4h0v-.6h0v-.4h0v-1h0v-.2h0v-.8h0v-1h0v-.4h0v-.2h0v-.4h0v-.4h0v-.2h0v-.4h0v-1h0v-.6h0v-1.4h0v-1.8h0v-1.2h0v-2.4h0v-1.6h0v-4.1h0v-3.7h0v-.4h0v-9.7h0v-.4h0v-4.1h0v-2h0v-3.8h0v-1.2h0v-3.8h0v-1.2h0v-6.1h0v-2.3h0v-.4h0v-2.4h0v-2.6h0v-2.8h0v-1.2h0v-4.2h0v-2h0v-3.8h0v-3.6h0v-5.9h0v-1.6h0v-5.1h0v-3.8h0v-1.2h0v-2.2h0v-28.7h0v-6.6c0-1.9,0-3.8,0-5.6v-48.4Z"/>
  <line class="cls-3" y1="201" x2="-27.5" y2="201"/>
  <path class="cls-5" d="M1920.3,310.9c0-.6,0-1.1,0-1.7,0-3.3-.2-6.6-.2-9.9s0-.7,0-1v-.3c-.2-4.4,0-8.9,0-13.3,0-5.3.3-10.6,0-15.9,0-.7,0-1.5-.2-2.2v-.4c0-.4,0-.9,0-1.3,0-.6,0-1.2,0-1.7v-4.5c-.3-1.2-.2-2.4,0-3.7h0v-.5c0-.1,0-.3,0-.4h0v-.4h0v-.3H0v693.4c264-26.4,528.1-71.6,792-84.1,296.5-14,592.7,13.4,888.5,51.7,79.8,10.3,159.7,21.5,239.5,32.4v-.7h0v-7.1h0v-1h0v-.9h0v-1.1h0v-27h0v-1h0v-1.1h0v-2h0v-28.9h0v-1.1h0v-.3h0v-27.4h0v-5.2h0v-23c0-.5,0-1,0-1.5,0-.6,0-1.2,0-1.8,0-.3,0-.7,0-1v-1.7h0v-1h0v-.3h0v-.8h0v-.3h0v-.4h0v-.2h0v-2.2h0v-1.8h0v-1h0v-1h0v-1.3h0v-.5h0v-3.5h0v-.5h0v-1.2h0v-6.3h0v-.7h0v-2.7h0v-5.3h0v-3h0v-2.3h0v-.5h0v-.2h0v-5.1h0v-2.5h0v-2.3h0v-1.4h0v-.5h0v-.5h0v-.5h0v-.2h0v-1.7h0v-1.2h0v-1h0v-.3h0v-.6h0v-3.3h0v-5.2h0v-1h0v-1.7h0v-.7h0v-.3h0v-1.9h0v-.2h0v-5.1h0v-.6h0v-1h0v-.8h0v-2.3h0v-2.7h0v-1.1h0v-1.8h0v-1.2h0v-5.8h0v-1.5h0v-.6h0v-2h0v-1.9c0-.3,0-.6,0-.9h0v-.6h0v-.5h0v-1.2h0v-.8h0v-.2h0v-3.1h0v-.7h0v-.3h0v-2.8h0v-1.3h0v-.6h0v-1.1h0v-1.3h0v-.6h0v-1.4h0v-.5h0v-.5h0v-.5h0v-1.1h0v-.8h0v-.6h0v-.2h0v-1.1h0v-1h0v-15h0v-2.3h0v-.5h0v-2.2h0v-1h0v-.7h0v-2.1h0v-3.3h0v-.5h0v-1.7h0v-.5h0v-.3h0v-1.4h0v-.7h0v-.5h0v-2.2h0v-6.9h0v-.2h0v-1.3h0v-.5h0v-1.5h0v-1.7h0v-.7h0v-.3h0v-3.4h0v-2h0v-.5h0v-2.2h0v-1h0v-5.2h0v-3h0v-.5h0v-1.9h0v-.4h0v-1h0v-.9h0v-1.9h0v-1.3h0v-.5h0v-2.2h0v-2.3h0v-1.5h0v-.3h0v-1.1h0v-3.1h0v-.7h0v-.9h0v-.3h0v-.6h0v-2h0v-2h0v-1.1h0v-1h0v-4h0v-.5h0v-.4h0v-1h0v-1h0v-.2h0v-.9h0v-1.4h0v-.5h0v-1h0v-.5h0v-.9h0v-3.3h0v-1h0c0-.4,0-.8,0-1.1v-2.9h0c0-.4,0-.8,0-1.2h0v-.6h0v-1.4h0v-1.7c0-.3,0-.6,0-.9h0v-4.3h0v-.6h0v-1.1h0v-2.2h0v-1.1h0v-1h0v-.9h0v-1.3h0v-.8h0v-3.8h0v-1.3c0-.3,0-.6,0-1v-3.8h0v-3.8h0v-.2h0v-4.4h0v-.5h0v-.2h0v-3.8h0v-2.6h0v-.5h0v-.5h0v-1.1h0v-2h0v-.5h0v-1.5h0c0-.3,0-.7,0-1v-1.7h0v-6.2h0v-.5h0v-.5h0v-.5h0v-1.3h0v-2.2h0v-.6h0v-.8h0v-1.6h0v-2.5h0v-.3h0v-1.8h0v-2.4h0v-1.6h0v-1.4h0v-.6h0v-.7h0v-.6h0v-4h0v-1.7h0v-.5h0v-3.6h0v-.4h0v-2.4h0v-1.1h0v-3.1h0v-.5h0v-.5h0v-.6h0v-.2h0v-3.9h0v-1.1h0v-1h0v-3h0v-1.8h0v-2.1h0v-1.8h0v-.7h0v-2.1h0v-2.1h0v-.2h0v-1.9h0v-2.4h0v-1h0v-.5h0v-.5h0v-1.3h0v-.4h0v-1.2h0v-2c0-.5,0-1,0-1.6,0-.5,0-1,0-1.6,0-.6,0-1.2,0-1.8,0-.7-.2-1.3,0-2,0-.4,0-.9,0-1.3,0-.3,0-.6,0-.9v-2.3c0-.5,0-.9,0-1.4v-.2h0c-.2-.7-.2-1.4,0-2v-.5c0-.5,0-1.1.2-1.6v-2.9c0-.6,0-1.1,0-1.7,0-.4,0-.7,0-1,0-.5,0-1,0-1.5,0-.4-.2-.8-.2-1.2s0-1,0-1.5c0-.4,0-.8,0-1.2v-1c0-.6,0-1.2,0-1.7,0-.6,0-1.2,0-1.8,0-.7,0-1.4,0-2h0c0-.6,0-1,0-1.5,0-.6,0-1.2,0-1.7h0c0-.6,0-1.1,0-1.7,0-.5,0-1,0-1.6,0-.5,0-1.1,0-1.6v-.3c0-.2,0-.3,0-.5,0-.8,0-1.6,0-2.5s0-.3,0-.5c-.2-.8-.2-1.7,0-2.6,0-.5-.2-1,0-1.5v-.5h0v-.5h0c0-.2,0-.3,0-.5h0c-.2-.8-.2-1.7,0-2.5-.2-.9-.2-1.8,0-2.7-.2-.6-.2-1.3,0-2,0-.6,0-1.2,0-1.7,0-.3,0-.7,0-1v-.2h0v-.4c-.2-.8-.3-1.6,0-2.5,0-.7,0-1.4,0-2.2v-1.4c-.2-.8-.2-1.5,0-2.3,0-.3,0-.6,0-1v-.2c-.2-.9-.2-1.9,0-2.8v-3.2c0-.7-.2-1.3,0-2,0-.6,0-1.3,0-1.9v-1.8c0-.3,0-.5,0-.7-.2-.7-.2-1.5,0-2.2v-.9c0-.3,0-.6,0-.9,0-.6-.2-1.2,0-1.8,0-.6,0-1.2,0-1.7-.2-.8,0-1.7,0-2.5-.2-2.6-.2-5.1,0-7.7,0-.4,0-.8,0-1.2,0-1.7,0-3.5.2-5.3v-4.3c0-.2,0-.5,0-.7,0-.4,0-.7,0-1s0-.6,0-.9c0-.6,0-1.3,0-1.9v-1c0-.3,0-.5,0-.8,0-.5,0-1,.2-1.4h0c0-.8-.2-1.5,0-2.2v-2.2h0c0-.4,0-.6,0-.9v-1.4c0-.2,0-.5,0-.7,0-2.6-.2-5.2,0-7.8,0-1.8,0-2.1.1-2.4Z"/>
  <path class="cls-2" d="M1920,84.4v-11.4h0v-.2h0v-201.3H0v659l45.7-2.2c45.6-2.1,137-6.5,228.5-26.1,91.5-19.7,183.1-54.7,274.6-92.5,91.5-37.9,182.9-78.5,274.2-95.9,91.3-17.3,182.7-11.3,274-8.1,91.3,3.1,182.7,3.5,274.2,3.6,91.5.2,183.1.2,274.6,5.5,91.5,5.4,182.9,16,228.5,21.4l45.7,5.3v-48.1h0v-.6h0v-.4h0v-1.3h0v-.8h0v-1.7h0v-.4h0v-.6h0q0-.1,0,0h0v-1h0v-.2h0v-.4h0v-.2h0v-.4h0v-.4h0v-.6h0v-.6h0v-.2h0v-1.3h0v-.6h0v-1.4h0v-.6h0v-1.4h0v-1h0v-.6h0v-1.4h0v-.6h0v-.4h0v-1h0v-.2h0v-.8h0v-1h0v-.4h0v-.2h0v-.4h0v-.4h0v-.2h0v-.4h0v-1h0v-.6h0v-1.4h0v-1.7h0v-1.3h0v-2.5h0v-1.7h0v-4.1h0v-3.7h0v-.4h0v-9.7h0v-.4h0v-4.1h0v-2.1h0v-3.9h0v-1.3h0v-3.9h0v-1.3h0v-6.1h0v-1.5h0v-.4h0v-2.5h0v-2.7h0v-2.9h0v-1.3h0v-4.3h0v-2.1h0v-3.8h0v-3h0v-5.9h0v-1.7h0v-5.1h0v-3.9h0v-1.3h0v-2.3h0v-28.3h0v-6.6c0-1.9,0-3.7,0-5.6v-48.4h0Z"/>
  <path class="cls-6" d="M1993.8,302.5v-11.2h0v-.2h0V93.8H-63.6v463.5l49-12.1c48.9-12.2,146.8-36.3,244.8-61.9,98-25.7,196.2-52.7,294.2-42.4,98,10.3,196,57.9,293.8,81.8,97.8,23.8,195.8,23.8,293.6,18.4,97.8-5.4,195.8-16.2,293.8-21.6,98-5.4,196.2-5.4,294.2.7,98,6,196,18.1,244.8,24.1l49,6.1v-43.2h0v-.6h0v-.4h0v-1.3h0v-.8h0v-1.7h0v-.4h0v-.6h0q0,0,0,0h0v-1h0v-.2h0v-.4h0v-.2h0v-.4h0v-.4h0v-.6h0v-.6h0v-.2h0v-1.3h0v-.6h0v-1.4h0v-.6h0v-1.4h0v-1h0v-.6h0v-1.4h0v-.6h0v-.4h0v-1h0v-.2h0v-.8h0v-1h0v-.4h0v-.2h0v-.4h0v-.4h0v-.2h0v-.4h0v-1h0v-.6h0v-1.4h0v-1.7h0v-1.3h0v-2.4h0v-1.7h0v-4h0v-3.6h0v-.4h0v-9.5h0v-.4h0v-4h0v-2.1h0v-3.8h0v-1.3h0v-3.8h0v-1.3h0v-6h0v-1.5h0v-.4h0v-2.4h0v-2.6h0v-2.8h0v-1.3h0v-4.2h0v-2.1h0v-3.7h0v-2.9h0v-5.8h0v-1.7h0v-5h0v-3.8h0v-1.3h0v-2.3h0v-27.7h0v-6.5c0-1.9-.1-3.6,0-5.5v-47.4h0Z"/>
  <path class="cls-4" d="M0,201.5v39.7"/>
  <path class="cls-1" d="M-195.1,168l-1.5,28,58,3.8c57.8,3.8,173.8,11.5,290.2,12.5,116.4,1.1,233.3-4.6,350.5-16.8,117.1-12.2,234.5-31.1,350-18.5,115.5,12.6,229.4,56.8,345.5,59.4,116.1,2.8,234.5-35.8,351.5-45.8,117-9.8,232.6,8.9,348.7,15.6s232.8,1,291-1.8l58.3-2.8,11.5-209.6-58-3.2c-57.9-3.2-173.9-9.6-290-16-116.1-6.4-232.4-12.8-348.5-19.2-116.1-6.4-232.1-12.8-348-19.2-115.9-6.4-231.9-12.8-347.7-19.2-115.9-6.4-231.9-12.8-348-19.2-116.1-6.4-232.4-12.8-348.5-19.2-116.1-6.4-232.1-12.8-290-16l-58-3.2-14.3,259.1"/>
</svg>