<?xml version="1.0" encoding="utf-8"?>
<!-- Generator: Adobe Illustrator 28.3.0, SVG Export Plug-In . SVG Version: 6.00 Build 0)  -->
<svg version="1.1" id="visual" xmlns="http://www.w3.org/2000/svg" xmlns:xlink="http://www.w3.org/1999/xlink" x="0px" y="0px"
	 viewBox="0 0 1920 1080" style="enable-background:new 0 0 1920 1080;" xml:space="preserve">
<style type="text/css">
	.st0{fill:#F97316;}
	.st1{opacity:0.95;fill:#FED7AA;}
	.st2{fill:#FDBA74;}
	.st3{fill:#FB923C;}
</style>
<path class="st0" d="M1920,212.9c0-0.1,0-0.3,0-0.4c0-0.5,0-0.9,0-1.3v-9.7c0,0,0-0.1,0-0.1v-0.1c0,0,0,0,0,0c0,0,0,0,0,0v0
	c0,0,0,0,0,0V0H0v1080h1920V641.9c0-0.1,0-0.3,0-0.4v0c0,0,0,0,0,0c0,0,0,0,0,0v0c0-0.1,0-0.1,0-0.2v0l0,0c0,0,0-0.1,0-0.1v-1.3
	c0-0.1,0-0.3,0-0.4v-0.6c0-0.1,0-0.3,0-0.4v-0.6c0-0.1,0-0.3,0-0.4v-0.4c0-0.3,0-0.5,0-0.8v-0.2c0-0.3,0-0.5,0-0.8v-0.4
	c0-0.1,0-0.3,0-0.4v-0.6c0-0.1,0-0.3,0-0.4v-0.6c0-0.1,0-0.3,0-0.4v-0.6c0-0.1,0-0.3,0-0.4v-0.6c0-0.1,0-0.3,0-0.4v-0.6
	c0-0.1,0-0.3,0-0.4v-0.6c0-0.1,0-0.3,0-0.4v-0.6c0-0.1,0-0.3,0-0.4v-0.6c0-0.1,0-0.3,0-0.4v-0.6c0-0.1,0-0.3,0-0.4v-0.6
	c0-0.1,0-0.3,0-0.4v-0.6c0-0.1,0-0.3,0-0.4v-0.2c0-0.1,0-0.3,0-0.4c0-0.1,0-0.3,0-0.4v-0.2c0-0.1,0-0.3,0-0.4c0-0.1,0-0.3,0-0.4
	v-0.6c0-0.1,0-0.3,0-0.4v-0.2c0-0.1,0-0.3,0-0.4c0-0.1,0-0.3,0-0.4v-0.6c0-0.1,0-0.3,0-0.4v-0.6c0-0.1,0-0.3,0-0.4v-0.2
	c0-0.1,0-0.3,0-0.4c0-0.1,0-0.3,0-0.4v-0.2c0-0.1,0-0.3,0-0.4c0-0.1,0-0.3,0-0.4v-0.2c0-0.1,0-0.3,0-0.4c0-0.1,0-0.3,0-0.4v-0.2
	c0-0.1,0-0.3,0-0.4c0-0.1,0-0.3,0-0.4v-0.8c0-0.1,0-0.3,0-0.4v-0.4c0-0.1,0-0.3,0-0.4v-0.2c0-0.1,0-0.3,0-0.4v-0.6
	c0-0.1,0-0.3,0-0.4c0-0.1,0-0.3,0-0.4v-0.6c0-0.1,0-0.3,0-0.4c0-0.1,0-0.1,0-0.2c0-0.1,0-0.3,0-0.4c0-0.1,0-0.3,0-0.4v-0.2
	c0-0.1,0-0.3,0-0.4c0-0.1,0-0.3,0-0.4v-0.6c0-0.1,0-0.3,0-0.4v-0.2c0-0.1,0-0.3,0-0.4c0-0.1,0-0.3,0-0.4v-0.2c0-0.1,0-0.3,0-0.4
	c0-0.1,0-0.3,0-0.4V603c0-0.1,0-0.3,0-0.4c0-0.1,0-0.3,0-0.4c0-0.1,0-0.3,0-0.4v-0.2c0-0.1,0-0.3,0-0.4V601c0-0.1,0-0.3,0-0.4
	c0-0.1,0-0.3,0-0.4V600c0-0.1,0-0.3,0-0.4c0-0.1,0-0.3,0-0.4V599c0-0.1,0-0.3,0-0.4c0-0.1,0-0.3,0-0.4V598c0-0.1,0-0.3,0-0.4
	c0-0.1,0-0.3,0-0.4v-0.6c0-0.1,0-0.3,0-0.4V596c0-0.1,0-0.3,0-0.4c0-0.1,0-0.3,0-0.4V595c0-0.1,0-0.3,0-0.4c0-0.1,0-0.3,0-0.4V594
	c0-0.1,0-0.3,0-0.4c0-0.1,0-0.3,0-0.4v-0.6c0-0.1,0-0.3,0-0.4v-0.6c0-0.1,0-0.3,0-0.4v-0.6c0-0.1,0-0.3,0-0.4V590c0-0.1,0-0.3,0-0.4
	c0-0.1,0-0.3,0-0.4V589c0-0.1,0-0.3,0-0.4c0-0.1,0-0.3,0-0.4V588c0-0.1,0-0.3,0-0.4c0-0.1,0-0.3,0-0.4v-0.6c0-0.1,0-0.3,0-0.4V586
	c0-0.1,0-0.3,0-0.4c0-0.1,0-0.3,0-0.4v-0.6c0-0.1,0-0.3,0-0.4V584c0-0.1,0-0.3,0-0.4c0-0.1,0-0.3,0-0.4v-0.6c0-0.1,0-0.3,0-0.4v-0.6
	c0-0.1,0-0.3,0-0.4V581c0-0.1,0-0.3,0-0.4c0-0.1,0-0.3,0-0.4c0-0.1,0-0.1,0-0.2c0-0.1,0-0.3,0-0.4c0-0.1,0-0.3,0-0.4v-0.6
	c0-0.1,0-0.3,0-0.4c0-0.1,0-0.1,0-0.2c0-0.1,0-0.3,0-0.4c0-0.1,0-0.3,0-0.4V577c0-0.1,0-0.3,0-0.4c0-0.1,0-0.3,0-0.4v-0.6
	c0-0.1,0-0.3,0-0.4V575c0-0.1,0-0.3,0-0.4c0-0.1,0-0.3,0-0.4V574c0-0.1,0-0.3,0-0.4c0-0.1,0-0.3,0-0.4V573c0-0.1,0-0.3,0-0.4
	c0-0.1,0-0.3,0-0.4c0-0.1,0-0.3,0-0.4v-0.2c0-0.1,0-0.3,0-0.4v-0.6c0-0.1,0-0.3,0-0.4c0-0.1,0-0.1,0-0.2c0-0.1,0-0.3,0-0.4
	c0-0.1,0-0.3,0-0.4v-0.2c0-0.1,0-0.3,0-0.4c0-0.1,0-0.3,0-0.4v-0.6c0-0.1,0-0.3,0-0.4v-0.6c0-0.1,0-0.3,0-0.4v-0.2
	c0-0.1,0-0.3,0-0.4c0-0.1,0-0.3,0-0.4v-0.6c0-0.1,0-0.3,0-0.4v-0.2c0-0.1,0-0.3,0-0.4c0-0.1,0-0.3,0-0.4v-0.6c0-0.1,0-0.3,0-0.4
	v-0.2c0-0.1,0-0.3,0-0.4c0-0.1,0-0.3,0-0.4v-0.2c0-0.1,0-0.3,0-0.4c0-0.1,0-0.3,0-0.4v-0.2c0-0.1,0-0.3,0-0.4c0-0.1,0-0.3,0-0.4
	v-0.2c0-0.1,0-0.3,0-0.4c0-0.1,0-0.3,0-0.4c0-0.1,0-0.3,0-0.4c0-0.1,0-0.1,0-0.2c0-0.1,0-0.1,0-0.2c0-0.1,0-0.3,0-0.4v-0.4
	c0-0.1,0-0.3,0-0.4v-0.6c0-0.1,0-0.3,0-0.4v-0.2c0-0.1,0-0.3,0-0.4c0-0.1,0-0.3,0-0.4v-0.6c0-0.1,0-0.3,0-0.4c0-0.1,0-0.3,0-0.4
	c0-0.1,0-0.1,0-0.2c0-0.1,0-0.3,0-0.4v-0.2c0-0.1,0-0.3,0-0.4c0-0.1,0-0.3,0-0.4v-0.2c0-0.1,0-0.3,0-0.4c0-0.1,0-0.3,0-0.4v-0.2
	c0-0.1,0-0.3,0-0.4c0-0.1,0-0.3,0-0.4v-0.2c0-0.1,0-0.3,0-0.4c0-0.1,0-0.3,0-0.4v-0.2c0-0.1,0-0.3,0-0.4c0-0.1,0-0.3,0-0.4v-0.6
	c0-0.1,0-0.3,0-0.4v-0.6c0-0.1,0-0.3,0-0.4v-0.6c0-0.1,0-0.3,0-0.4v-0.2c0-0.1,0-0.3,0-0.4c0-0.1,0-0.3,0-0.4v-0.8
	c0-0.1,0-0.3,0-0.4v-0.4c0-0.1,0-0.3,0-0.4v-0.6c0-0.1,0-0.3,0-0.4v-0.6c0-0.1,0-0.3,0-0.4v-0.6c0-0.1,0-0.3,0-0.4v-0.6
	c0-0.1,0-0.3,0-0.4c0-0.1,0-0.1,0-0.2c0-0.1,0-0.3,0-0.4c0-0.1,0-0.3,0-0.4v-0.6c0-0.1,0-0.3,0-0.4c0-0.1,0-0.3,0-0.4v-0.2
	c0-0.1,0-0.3,0-0.4v-0.4c0-0.1,0-0.3,0-0.4v-2.6c0-0.3,0-0.5,0-0.8v-108c0,0,0,0,0-0.1v-0.5c0,0,0,0,0-0.1v-0.3c0,0,0,0,0-0.1v-1.1
	c0,0,0,0,0-0.1v-0.7c0,0,0,0,0-0.1v-1.5c0,0,0,0,0-0.1v-0.3c0,0,0,0,0-0.1v-0.5c0,0,0,0,0-0.1v-0.1c0,0,0,0,0-0.1V415c0,0,0,0,0-0.1
	v-0.1c0,0,0,0,0-0.1v-0.3c0,0,0,0,0-0.1v-0.1c0,0,0,0,0-0.1v-0.3c0,0,0,0,0-0.1v-0.3c0,0,0,0,0-0.1v-0.5c0,0,0,0,0-0.1v-0.5
	c0,0,0,0,0-0.1V412c0,0,0,0,0-0.1v-1.1c0,0,0,0,0-0.1v-0.5c0,0,0,0,0-0.1v-1.3c0,0,0,0,0-0.1v-0.5c0,0,0,0,0-0.1v-1.3c0,0,0,0,0-0.1
	v-0.9c0,0,0,0,0-0.1v-0.5c0,0,0,0,0-0.1v-1.3c0,0,0,0,0-0.1v-0.5c0,0,0,0,0-0.1v-0.3c0,0,0,0,0-0.1v-0.9c0,0,0,0,0-0.1v-0.1
	c0,0,0,0,0-0.1v-0.7c0,0,0,0,0-0.1v-0.9c0,0,0,0,0-0.1v-0.3c0,0,0,0,0-0.1v-0.1c0,0,0,0,0-0.1v-0.3c0,0,0,0,0-0.1v-0.3
	c0,0,0,0,0-0.1v-0.1c0,0,0,0,0-0.1v-0.3c0,0,0,0,0-0.1v-0.9c0,0,0,0,0-0.1v-0.5c0,0,0,0,0-0.1v-1.3c0,0,0,0,0-0.1V393c0,0,0,0,0-0.1
	v-1.1c0,0,0,0,0-0.1v-2.3c0,0,0,0,0-0.1v-1.5c0,0,0,0,0-0.1v-0.8c0-0.2,0-0.3,0-0.5c0-0.7,0-1.3,0-2v-0.7c0,0,0,0,0-0.1v-2.3
	c0-0.1,0-0.2,0-0.3v-1c0,0,0,0,0-0.1v-0.3c0,0,0,0,0-0.1v-9.6c0,0,0,0,0-0.1v-0.3c0,0,0,0,0-0.1v-4c0,0,0,0,0-0.1v-1.9
	c0,0,0,0,0-0.1v-3.7c0,0,0,0,0-0.1v-1.1c0,0,0,0,0-0.1v-3.7c0,0,0,0,0-0.1v-1.1c0,0,0,0,0-0.1v-6c0,0,0,0,0-0.1V345c0,0,0,0,0-0.1
	v-0.3c0,0,0,0,0-0.1v-2.3c0,0,0,0,0-0.1v-2.5c0,0,0,0,0-0.1v-2.7c0,0,0,0,0-0.1v-1.1c0,0,0,0,0-0.1v-4.1c0,0,0,0,0-0.1v-1.9
	c0,0,0,0,0-0.1v-3.7c0,0,0,0,0-0.1V322c0,0,0,0,0-0.1v-5.8c0,0,0,0,0-0.1v-1.5c0,0,0,0,0-0.1v-5c0,0,0,0,0-0.1v-3.7c0,0,0,0,0-0.1
	v-1.1c0,0,0,0,0-0.1v-2.1c0,0,0,0,0-0.1v-9.7c0-0.2,0-0.4,0-0.6c0-0.7,0-1.4,0-2V276c0-0.1,0-0.3,0-0.4v-2.1c0,0,0,0,0-0.1v-6.5
	c0-1.9-0.1-3.8,0-5.6V212.9z"/>
<line class="st1" x1="0" y1="201" x2="-27.5" y2="201"/>
<path class="st1" d="M1920.3,258.6c0-0.6-0.1-1.1-0.1-1.7c-0.1-3.3-0.2-6.6-0.2-9.9c0-0.4,0-0.7,0.1-1c0-0.1,0-0.2,0-0.3
	c-0.2-4.4-0.1-8.9,0.1-13.3c0-5.3,0.3-10.6,0.1-15.9c-0.1-0.7-0.1-1.5-0.2-2.2c0-0.2,0-0.3,0-0.4c0-0.4-0.1-0.9-0.1-1.3
	c-0.1-0.6,0-1.2,0.1-1.7c0-0.3,0-0.6,0-0.9c0-0.3,0-0.7,0-1c0-0.3,0-0.7,0-1c0-0.4,0-0.7,0-1.1c0-0.2,0-0.3,0-0.5
	c-0.3-1.2-0.2-2.4,0-3.7c0,0,0,0,0,0c0,0,0,0,0,0c0-0.2,0-0.3,0-0.5c0-0.1,0-0.3-0.1-0.4c0,0,0,0,0,0c0-0.1,0-0.3,0-0.4v-0.1
	c0,0,0,0,0,0c0,0,0,0,0,0v0c0-0.1,0-0.1,0-0.2H0l0,693.4c264-26.4,528.1-71.6,792-84.1c296.5-14,592.7,13.4,888.5,51.7
	c79.8,10.3,159.7,21.5,239.5,32.4c0-0.2,0-0.5,0-0.7c0,0,0,0,0-0.1c0-0.3,0-0.7,0-1c0-0.3,0-0.7,0-1c0-0.3,0-0.7,0-1
	c0-0.3,0-0.7,0-1c0-0.3,0-0.6,0-0.9c0-0.4,0-0.7,0-1.1c0-0.3,0-0.7,0-1v0c0-0.3,0-0.6,0-1v0c0-0.3,0-0.6,0-0.9c0,0,0,0,0,0
	c0,0,0-0.1,0-0.1c0-0.3,0-0.7,0-1v0c0-0.3,0-0.7,0-1c0-0.3,0-0.7,0-1c0-0.3,0-0.7,0-1c0-0.3,0-0.7,0-1c0-0.3,0-0.7,0-1
	c0-0.3,0-0.7,0-1c0-0.3,0-0.7,0-1c0-0.3,0-0.7,0-1c0-0.3,0-0.7,0-1c0-0.3,0-0.7,0-1c0-0.3,0-0.7,0-1c0-0.3,0-0.7,0-1
	c0-0.3,0-0.7,0-1c0-0.3,0-0.7,0-1c0-0.3,0-0.7,0-1c0-0.3,0-0.7,0-1c0-0.3,0-0.7,0-1c0-0.3,0-0.7,0-1c0-0.3,0-0.7,0-1
	c0-0.3,0-0.7,0-1c0-0.3,0-0.7,0-1c0-0.3,0-0.7,0-1c0-0.3,0-0.7,0-1c0-0.3,0-0.7,0-1c0-0.3,0-0.7,0-1c0-0.3,0-0.7,0-1
	c0-0.3,0-0.6,0-1v0c0-0.3,0-0.6,0-1v0c0-0.4,0-0.7,0-1.1v0c0-0.4,0-0.7,0-1.1c0-0.3,0-0.6,0-0.9c0,0,0,0,0,0c0-0.3,0-0.7,0-1
	c0-0.3,0-0.7,0-1c0-0.3,0-0.7,0-1c0-0.3,0-0.7,0-1c0-0.3,0-0.7,0-1c0-0.3,0-0.7,0-1c0-0.3,0-0.7,0-1c0-0.3,0-0.7,0-1
	c0-0.3,0-0.7,0-1c0-0.3,0-0.6,0-1c0-0.3,0-0.7,0-1c0-0.3,0-0.7,0-1c0-0.3,0-0.7,0-1c0-0.3,0-0.7,0-1c0-0.3,0-0.7,0-1
	c0-0.3,0-0.7,0-1c0-0.3,0-0.7,0-1c0-0.3,0-0.7,0-1c0-0.3,0-0.7,0-1c0-0.3,0-0.7,0-1c0-0.3,0-0.7,0-1c0-0.3,0-0.7,0-1
	c0-0.3,0-0.7,0-1c0-0.3,0-0.7,0-1c0-0.3,0-0.7,0-1c0-0.3,0-0.7,0-1c0-0.3,0-0.7,0-1c0-0.3,0-0.7,0-1c0-0.3,0-0.6,0-0.9v0
	c0-0.4,0-0.7,0-1.1c0,0,0,0,0,0c0-0.1,0-0.2,0-0.3v0c0-0.2,0-0.4,0-0.6c0-0.4,0-0.7,0-1.1c0-0.3,0-0.7,0-1c0-0.3,0-0.7,0-1
	c0-0.3,0-0.7,0-1c0-0.3,0-0.7,0-1c0-0.3,0-0.7,0-1c0-0.3,0-0.7,0-1c0-0.3,0-0.7,0-1c0-0.3,0-0.7,0-1c0-0.3,0-0.7,0-1
	c0-0.3,0-0.7,0-1c0-0.3,0-0.7,0-1c0-0.3,0-0.7,0-1c0-0.3,0-0.7,0-1c0-0.3,0-0.7,0-1c0-0.3,0-0.7,0-1c0-0.3,0-0.7,0-1
	c0-0.3,0-0.7,0-1c0-0.3,0-0.7,0-1c0-0.3,0-0.7,0-1c0-0.3,0-0.7,0-1c0-0.3,0-0.7,0-1c0-0.3,0-0.7,0-1c0-0.3,0-0.7,0-1
	c0-0.3,0-0.7,0-1c0-0.3,0-0.7,0-1c0-0.2,0-0.5,0-0.7c0,0,0-0.1,0-0.1c0-0.1,0-0.1,0-0.2c0-0.3,0-0.7,0-1c0-0.3,0-0.5,0-0.8
	c0-0.1,0-0.2,0-0.2c0-0.3,0-0.6,0-0.9c0-0.3,0-0.7,0-1c0-0.3,0-0.7,0-1v0c0-0.3,0-0.7,0-1c0-0.3,0-0.7,0-1c0-0.3,0-0.7,0-1
	c0-0.3,0-0.7,0-1c0-0.3,0-0.7,0-1c0-0.3,0-0.6,0-1c0-0.3,0-0.7,0-1c0-0.3,0-0.7,0-1c0-0.3,0-0.7,0-1c0-0.3,0-0.7,0-1
	c0-0.3,0-0.7,0-1c0-0.3,0-0.7,0-1c0-0.3,0-0.7,0-1c0-0.3,0-0.6,0-1c0-0.3,0-0.7,0-1c0-0.3,0-0.7,0-1c0-0.3,0-0.7,0-1
	c0-0.3,0-0.7,0-1c0-0.3,0-0.7,0-1c0-0.3,0-0.7,0-1c0-0.3,0-0.7,0-1c0-0.3,0-0.7,0-1c0-0.3,0-0.7,0-1c0-0.5,0-1,0.1-1.5
	c-0.1-0.6-0.1-1.2,0-1.8c0-0.3-0.1-0.7-0.1-1c0-0.3,0-0.5,0-0.8c0-0.3,0-0.6,0-0.9v0c0-0.3,0-0.7,0-1v0c0-0.1,0-0.2,0-0.3
	c0,0,0,0,0,0c0,0,0-0.1,0-0.1v0c0,0,0,0,0,0c0-0.2,0-0.4,0-0.7c0,0,0-0.1,0-0.1c0,0,0,0,0,0v0c0-0.1,0-0.1,0-0.2c0,0,0,0,0,0
	c0-0.1,0-0.2,0-0.4c0,0,0,0,0,0v0c0-0.1,0-0.1,0-0.2c0,0,0,0,0,0c0,0,0-0.1,0-0.1v0c0-0.3,0-0.6,0-0.9c0-0.3,0-0.6,0-0.8
	c0-0.1,0-0.3,0-0.4v0c0-0.2,0-0.5,0-0.7c0-0.1,0-0.2,0-0.2c0-0.1,0-0.1,0-0.2c0-0.2,0-0.5,0-0.7v0c0-0.3,0-0.7,0-1v0
	c0-0.3,0-0.6,0-1v0c0-0.3,0-0.5,0-0.8c0-0.2,0-0.4,0-0.5v0c0-0.2,0-0.3,0-0.5c0,0,0,0,0,0c0-0.1,0-0.1,0-0.2c0-0.2,0-0.4,0-0.6
	c0-0.2,0-0.5,0-0.7c0-0.2,0-0.5,0-0.7c0-0.2,0-0.4,0-0.6c0-0.2,0-0.5,0-0.7c0,0,0,0,0,0c0-0.2,0-0.3,0-0.5c0,0,0,0,0,0
	c0-0.1,0-0.1,0-0.2c0-0.3,0-0.7,0-1v0c0-0.3,0-0.5,0-0.8c0-0.2,0-0.3,0-0.5c0-0.2,0-0.3,0-0.5c0-0.2,0-0.3,0-0.5c0-0.2,0-0.4,0-0.6
	c0-0.3,0-0.6,0-0.9c0-0.2,0-0.4,0-0.5c0-0.2,0-0.3,0-0.5c0-0.2,0-0.3,0-0.5c0-0.2,0-0.3,0-0.5c0-0.2,0-0.3,0-0.5c0,0,0,0,0,0
	c0-0.1,0-0.3,0-0.4c0-0.1,0-0.2,0-0.3v0c0-0.2,0-0.4,0-0.6c0-0.1,0-0.3,0-0.4c0-0.2,0-0.4,0-0.6c0-0.1,0-0.2,0-0.4
	c0-0.2,0-0.4,0-0.7c0,0,0-0.1,0-0.1c0-0.2,0-0.3,0-0.5c0-0.1,0-0.2,0-0.3c0-0.2,0-0.5,0-0.7c0-0.2,0-0.3,0-0.5c0-0.2,0-0.3,0-0.5
	c0-0.2,0-0.3,0-0.5c0-0.2,0-0.3,0-0.5c0-0.2,0-0.3,0-0.5c0-0.2,0-0.3,0-0.5c0-0.2,0-0.4,0-0.7v0c0-0.3,0-0.7,0-1c0-0.3,0-0.7,0-1
	c0-0.3,0-0.6,0-1v0c0-0.3,0-0.5,0-0.8c0-0.2,0-0.4,0-0.5c0-0.2,0-0.3,0-0.5c0-0.2,0-0.3,0-0.5v0c0-0.2,0-0.3,0-0.5v0
	c0-0.1,0-0.1,0-0.2v0c0-0.3,0-0.7,0-1c0-0.3,0-0.5,0-0.8c0-0.2,0-0.3,0-0.5c0-0.2,0-0.3,0-0.5c0-0.2,0-0.3,0-0.5c0-0.2,0-0.3,0-0.5
	c0-0.2,0-0.3,0-0.5c0-0.3,0-0.5,0-0.8v0c0,0,0-0.1,0-0.1c0-0.3,0-0.6,0-0.9c0-0.1,0-0.2,0-0.3c0-0.2,0-0.4,0-0.7c0-0.2,0-0.3,0-0.5
	c0,0,0,0,0,0v0c0,0,0-0.1,0-0.1c0,0,0,0,0,0v0c0,0,0,0,0,0c0,0,0-0.1,0-0.1c0-0.2,0-0.3,0-0.5c0-0.1,0-0.2,0-0.3c0-0.2,0-0.5,0-0.7
	c0-0.2,0-0.4,0-0.6v0c0-0.3,0-0.6,0-0.9c0-0.2,0-0.4,0-0.5v0c0-0.2,0-0.3,0-0.5c0,0,0,0,0,0c0,0,0,0,0,0c0-0.2,0-0.3,0-0.5v0
	c0-0.2,0-0.3,0-0.5v0c0-0.1,0-0.1,0-0.2v0c0-0.3,0-0.7,0-1c0-0.2,0-0.5,0-0.7c0,0,0-0.1,0-0.1c0,0,0,0,0,0c0-0.2,0-0.3,0-0.5
	c0-0.2,0-0.4,0-0.6c0,0,0,0,0,0c0-0.3,0-0.7,0-1c0,0,0,0,0,0v0c0-0.1,0-0.2,0-0.3c0,0,0-0.1,0-0.1v0c0,0,0,0,0,0c0-0.2,0-0.3,0-0.5
	v0c0,0,0,0,0,0c0,0,0,0,0,0c0,0,0-0.1,0-0.1c0-0.4,0-0.7,0-1.1c0-0.3,0-0.7,0-1c0-0.3,0-0.5,0-0.8c0-0.1,0-0.2,0-0.3v0
	c0-0.3,0-0.7,0-1c0-0.1,0-0.3,0-0.4c0-0.2,0-0.3,0-0.5c0-0.3,0-0.7,0-1c0-0.2,0-0.4,0-0.6c0-0.2,0-0.4,0-0.5c0-0.2,0-0.4,0-0.7
	c0-0.2,0-0.3,0-0.5v0c0,0,0,0,0,0l0,0v0c0,0,0,0,0,0c0,0,0,0,0,0v0c0-0.1,0-0.2,0-0.3c0-0.2,0-0.5,0-0.7v0c0-0.1,0-0.2,0-0.3
	c0-0.1,0-0.3,0-0.4c0-0.3,0-0.7,0-1v0c0-0.2,0-0.5,0-0.7v0c0,0,0,0,0,0c0,0,0,0,0-0.1c0-0.1,0-0.2,0-0.2v0c0-0.3,0-0.6,0-0.9
	c0-0.3,0-0.7,0-1c0,0,0,0,0,0c0-0.1,0-0.1,0-0.2v0c0,0,0,0,0,0c0-0.3,0-0.6,0-0.9c0-0.2,0-0.4,0-0.6c0-0.2,0-0.5,0-0.7
	c0-0.1,0-0.3,0-0.4c0-0.1,0-0.1,0-0.2c0-0.4,0-0.8,0-1.1c0-0.2,0-0.4,0-0.6c0-0.2,0-0.4,0-0.6v0c0-0.2,0-0.4,0-0.6v0
	c0-0.2,0-0.4,0-0.6c0-0.1,0-0.3,0-0.4v0c0-0.3,0-0.5,0-0.8c0,0,0,0,0-0.1c0,0,0-0.1,0-0.1c0-0.3,0-0.7,0-1c0-0.3,0-0.5,0-0.8
	c0-0.1,0-0.2,0-0.3v0c0-0.3,0-0.6,0-0.9c0-0.3,0-0.6,0-0.8c0-0.3,0-0.7,0-1v0c0-0.4,0-0.8,0-1.1v0c0-0.2,0-0.4,0-0.6
	c0-0.2,0-0.3,0-0.5c0-0.2,0-0.5,0-0.7c0,0,0,0,0-0.1c0-0.1,0-0.1,0-0.2c0-0.3,0-0.6,0-0.9v0c0-0.3,0-0.5,0-0.8c0-0.1,0-0.2,0-0.2
	c0-0.2,0-0.4,0-0.6c0-0.2,0-0.4,0-0.7c0-0.1,0-0.2,0-0.4c0-0.1,0-0.3,0-0.4c0-0.2,0-0.4,0-0.6c0-0.2,0-0.5,0-0.7c0-0.3,0-0.6,0-0.8
	c0-0.2,0-0.4,0-0.6c0,0,0-0.1,0-0.1c0-0.1,0-0.2,0-0.3c0-0.2,0-0.4,0-0.6c0-0.2,0-0.3,0-0.5v0c0-0.2,0-0.4,0-0.6c0,0,0,0,0,0
	c0,0,0,0,0,0c0-0.1,0-0.1,0-0.2c0-0.2,0-0.4,0-0.6c0-0.1,0-0.3,0-0.4c0-0.3,0-0.5,0-0.8c0,0,0,0,0,0c0,0,0-0.1,0-0.1
	c0-0.3,0-0.5,0-0.8c0-0.3,0-0.7,0-1c0-0.3-0.1-0.6,0-0.9l0,0c0,0,0,0,0-0.1c0-0.2,0-0.4,0-0.5v0c0-0.2,0-0.3,0-0.5c0,0,0,0,0,0
	c0-0.1,0-0.1,0-0.2c0-0.3,0-0.7,0-1v0c0-0.3,0-0.5,0-0.8c0,0,0,0,0,0v0c0,0,0,0,0,0c0-0.1,0-0.1,0-0.2v0c0-0.3,0-0.7,0-1
	c0-0.3,0-0.5,0-0.8c0-0.1,0-0.3,0-0.4c0-0.3,0-0.6,0-0.9v0c0-0.2,0-0.4,0-0.7v0c0-0.1,0-0.2,0-0.3v0c0-0.3,0-0.6,0-0.9
	c0-0.3,0-0.7,0-1c0-0.3,0-0.6,0-0.9v0c0-0.2,0-0.4,0-0.6c0-0.2,0-0.5,0-0.7v0c0,0,0,0,0,0c0-0.1,0-0.2,0-0.3c0-0.1,0-0.2,0-0.3v0
	c0-0.4,0-0.7,0-1.1v0c0-0.1,0-0.2,0-0.2c0-0.1,0-0.3,0-0.4c0-0.2,0-0.4,0-0.7v0c0-0.2,0-0.4,0-0.6v0c0-0.3,0-0.6,0-0.9
	c0-0.2,0-0.4,0-0.5v0c0,0,0,0,0,0c0-0.2,0-0.3,0-0.5v0c0,0,0,0,0,0c0,0,0,0,0,0c0-0.2,0-0.3,0-0.5v0c0-0.2,0-0.3,0-0.5c0,0,0,0,0,0
	c0,0,0,0,0,0c0-0.2,0-0.3,0-0.5c0-0.2,0-0.4,0-0.6v0c0-0.3,0-0.5,0-0.8c0,0,0,0,0,0c0,0,0,0,0,0c0-0.2,0-0.4,0-0.6v0c0,0,0,0,0,0
	c0,0,0,0,0,0v0c0-0.1,0-0.1,0-0.2c0,0,0,0,0,0c0-0.2,0-0.4,0-0.7c0-0.1,0-0.3,0-0.4c0,0,0,0,0,0c0-0.3,0-0.7,0-1v0c0-0.3,0-0.7,0-1
	c0-0.3,0-0.7,0-1c0-0.3,0-0.7,0-1c0-0.3,0-0.7,0-1c0-0.3,0-0.7,0-1c0-0.3,0-0.7,0-1c0-0.3,0-0.7,0-1c0-0.3,0-0.7,0-1
	c0-0.3,0-0.7,0-1c0-0.3,0-0.7,0-1c0-0.3,0-0.7,0-1c0-0.3,0-0.7,0-1c0-0.3,0-0.7,0-1c0-0.3,0-0.7,0-1c0-0.3,0-0.7,0-1c0,0,0,0,0,0
	c0-0.2,0-0.4,0-0.6c0-0.2,0-0.3,0-0.5c0-0.2,0-0.5,0-0.7c0-0.2,0-0.3,0-0.5v0c0-0.2,0-0.3,0-0.5v0c0-0.1,0-0.1,0-0.2
	c0-0.3,0-0.5,0-0.8c0-0.2,0-0.4,0-0.5c0-0.2,0-0.4,0-0.7v0c0-0.3,0-0.7,0-1v0c0-0.2,0-0.5,0-0.7c0,0,0-0.1,0-0.1c0,0,0,0,0,0
	c0-0.2,0-0.3,0-0.5c0-0.1,0-0.2,0-0.3c0-0.2,0-0.5,0-0.7c0-0.2,0-0.3,0-0.5v0c0,0,0,0,0,0c0-0.2,0-0.3,0-0.5c0-0.1,0-0.2,0-0.3
	c0-0.2,0-0.5,0-0.7c0-0.3,0-0.5,0-0.8c0-0.3,0-0.7,0-1c0,0,0,0,0,0c0-0.2,0-0.3,0-0.5c0,0,0,0,0-0.1c0,0,0-0.1,0-0.1
	c0-0.3,0-0.5,0-0.8c0-0.2,0-0.5,0-0.7v0c0-0.2,0-0.3,0-0.5c0,0,0,0,0,0c0,0,0,0,0,0c0,0,0,0,0,0c0,0,0,0,0,0c0-0.1,0-0.2,0-0.3v0
	c0-0.2,0-0.4,0-0.5c0-0.2,0-0.4,0-0.6c0-0.1,0-0.2,0-0.3v0c0,0,0,0,0,0v0c0,0,0-0.1,0-0.1c0-0.2,0-0.4,0-0.6v0c0-0.2,0-0.3,0-0.5v0
	c0-0.1,0-0.1,0-0.2c0-0.3,0-0.5,0-0.8c0-0.2,0-0.4,0-0.5c0-0.1,0-0.3,0-0.4c0-0.1,0-0.2,0-0.3v0c0-0.2,0-0.4,0-0.6
	c0-0.2,0-0.3,0-0.5c0-0.3,0-0.7,0-1c0-0.1,0-0.2,0-0.4c0-0.1,0-0.2,0-0.2c0-0.2,0-0.5,0-0.7c0-0.1,0-0.2,0-0.3c0-0.2,0-0.5,0-0.7
	c0-0.2,0-0.3,0-0.5c0-0.2,0-0.3,0-0.5c0-0.1,0-0.2,0-0.3c0-0.2,0-0.5,0-0.7c0-0.2,0-0.3,0-0.5c0,0,0,0,0,0c0-0.1,0-0.1,0-0.2v0
	c0-0.2,0-0.4,0-0.6c0-0.2,0-0.5,0-0.7v0c0-0.2,0-0.3,0-0.5v0c0,0,0,0,0,0c0,0,0,0,0,0c0-0.2,0-0.3,0-0.5c0-0.2,0-0.3,0-0.5
	c0-0.2,0-0.3,0-0.5v0c0-0.2,0-0.5,0-0.7c0-0.3,0-0.7,0-1v0c0-0.2,0-0.5,0-0.7c0,0,0-0.1,0-0.1c0-0.1,0-0.1,0-0.2v0
	c0-0.3,0-0.5,0-0.8c0-0.2,0-0.4,0-0.6c0-0.2,0-0.3,0-0.5c0-0.2,0-0.3,0-0.5c0-0.2,0-0.3,0-0.5c0-0.2,0-0.3,0-0.5v0
	c0-0.2,0-0.4,0-0.6c0-0.3,0-0.6,0-0.9c0-0.2,0-0.4,0-0.5c0,0,0,0,0,0c0-0.2,0-0.3,0-0.5v0c0-0.1,0-0.1,0-0.2c0-0.2,0-0.4,0-0.6
	c0-0.2,0-0.5,0-0.7c0-0.2,0-0.5,0-0.7v0c0-0.3,0-0.7,0-1v0c0-0.3,0-0.6,0-0.9c0-0.1,0-0.1,0-0.2c0-0.2,0-0.4,0-0.6
	c0-0.1,0-0.2,0-0.3c0-0.3,0-0.6,0-0.9c0-0.2,0-0.4,0-0.6c0-0.1,0-0.3,0-0.4c0-0.2,0-0.5,0-0.7c0-0.2,0-0.4,0-0.6v0
	c0-0.2,0-0.4,0-0.6c0-0.3,0-0.6,0-0.9c0-0.2,0-0.4,0-0.5c0-0.2,0-0.3,0-0.5c0-0.2,0-0.3,0-0.5v0c0-0.2,0-0.3,0-0.5v0c0,0,0,0,0,0
	c0-0.1,0-0.2,0-0.2c0-0.3,0-0.7,0-1c0-0.1,0-0.2,0-0.4c0-0.1,0-0.2,0-0.3v0c0,0,0,0,0,0v0c0,0,0,0,0,0c0-0.1,0-0.3,0-0.4v0
	c0-0.2,0-0.4,0-0.7c0-0.1,0-0.2,0-0.3v0c0-0.2,0-0.4,0-0.5c0-0.1,0-0.3,0-0.4v0c0-0.3,0-0.6,0-0.9c0-0.3,0-0.7,0-1v0
	c0-0.3,0-0.5,0-0.8c0-0.2,0-0.4,0-0.5c0,0,0,0,0,0c0-0.2,0-0.3,0-0.5v0c0-0.1,0-0.1,0-0.2c0-0.2,0-0.4,0-0.6c0-0.2,0-0.5,0-0.7
	c0-0.2,0-0.5,0-0.7v0c0-0.2,0-0.4,0-0.6c0-0.2,0-0.5,0-0.7c0-0.2,0-0.3,0-0.5c0-0.2,0-0.3,0-0.5v0c0-0.1,0-0.2,0-0.3
	c0-0.2,0-0.5,0-0.7c0-0.2,0-0.3,0-0.5c0,0,0,0,0,0c0,0,0,0,0,0c0-0.1,0-0.2,0-0.3v0c0-0.3,0-0.6,0-0.8c0-0.1,0-0.2,0-0.3
	c0,0,0,0,0-0.1v0c0-0.1,0-0.1,0-0.2c0-0.2,0-0.4,0-0.6c0-0.3,0-0.6,0-0.9c0-0.3,0-0.5,0-0.8c0-0.2,0-0.4,0-0.5v0c0-0.2,0-0.4,0-0.7
	c0,0,0,0,0,0c0-0.3,0-0.6,0-0.9c0,0,0,0,0,0v0c0-0.1,0-0.2,0-0.3c0,0,0-0.1,0-0.1v0c0-0.2,0-0.3,0-0.5v0c0,0,0,0,0,0c0,0,0,0,0,0
	c0-0.2,0-0.3,0-0.5c0-0.1,0-0.2,0-0.3c0-0.2,0-0.5,0-0.7c0-0.2,0-0.3,0-0.5c0,0,0,0,0,0c0,0,0,0,0,0c0-0.2,0-0.3,0-0.5
	c0-0.1,0-0.2,0-0.3c0-0.2,0-0.5,0-0.7c0-0.2,0-0.3,0-0.5v0c0,0,0,0,0,0c0-0.2,0-0.3,0-0.5c0-0.2,0-0.4,0-0.6v0c0-0.3,0-0.7,0-1v0
	c0-0.3,0-0.7,0-1c0-0.3,0-0.5,0-0.8c0-0.2,0-0.4,0-0.5c0-0.3,0-0.5,0-0.7c0-0.3,0-0.7,0-1c0,0,0,0,0,0c0,0,0,0,0,0
	c0-0.2,0-0.3,0-0.5c0,0,0,0,0,0c0,0,0,0,0,0c0-0.1,0-0.2,0-0.4c0,0,0,0,0-0.1c0-0.2,0-0.4,0-0.6c0-0.1,0-0.2,0-0.3v0
	c0-0.3,0-0.7,0-1v0c0-0.1,0-0.1,0-0.2v0c0-0.1,0-0.1,0-0.2c0-0.2,0-0.5,0-0.7c0,0,0-0.1,0-0.1v0c0-0.2,0-0.3,0-0.5
	c0-0.2,0-0.4,0-0.6c0-0.1,0-0.2,0-0.2c0,0,0,0,0,0c0,0,0,0,0-0.1c0,0,0,0,0,0c0-0.1,0-0.2,0-0.4c0,0,0-0.1,0-0.1c0-0.1,0-0.3,0-0.4
	c0-0.2,0-0.3,0-0.5c0,0,0-0.1,0-0.1c0,0,0,0,0,0c0,0,0-0.1,0-0.1c0-0.1,0-0.2,0-0.3c0,0,0-0.1,0-0.1c0-0.1,0-0.2,0-0.2
	c0-0.2,0-0.4,0-0.6c0,0,0-0.1,0-0.1c0-0.2,0-0.4,0-0.6c0-0.1,0-0.3,0-0.4c0-0.1,0-0.3,0-0.4c0-0.2,0-0.4,0-0.6c0-0.3,0-0.6,0-0.8
	c0-0.1,0-0.3,0-0.4c0,0,0,0,0-0.1c0-0.3,0-0.6,0-0.9v0c0-0.4-0.1-0.8,0-1.1c0-0.2,0-0.4,0-0.6c0-0.1,0-0.3,0-0.4c0-0.2,0-0.4,0-0.7
	c0-0.2,0-0.4,0-0.6c0-0.2,0-0.4,0-0.6c0,0,0,0,0,0c0-0.4-0.1-0.8,0-1.2v0c0-0.2,0-0.4,0-0.6c0,0,0-0.1,0-0.1c0-0.1,0-0.2,0-0.3
	c0-0.3,0-0.7,0-1c0,0,0,0,0,0c0-0.2,0-0.3,0-0.5c0-0.4,0-0.8,0-1.2c0-0.3-0.1-0.6,0-0.9c0,0,0,0,0,0c0,0,0,0,0-0.1
	c0-0.3,0-0.5,0-0.8c0-0.3,0-0.7,0-1c0-0.2,0-0.5,0-0.7c0-0.3,0-0.5,0-0.8c0-0.3,0-0.6,0-0.9v0c0-0.2,0-0.4,0-0.6v0c0,0,0,0,0,0
	c0,0,0,0,0,0c0-0.1,0-0.2,0-0.3c0-0.3,0-0.5,0-0.8c0,0,0-0.1,0-0.1c0-0.3,0-0.5,0-0.8c0-0.1,0-0.3,0-0.4c0-0.3,0-0.6,0-0.9
	c0,0,0,0,0,0c0,0,0,0,0,0c0,0,0,0,0,0c0-0.4,0-0.7,0-1.1v0c0,0,0,0,0,0v0c0-0.3,0-0.7,0-1v0c0,0,0-0.1,0-0.1c0,0,0,0,0,0
	c0-0.1,0-0.3,0-0.4c0-0.1,0-0.3,0-0.4v0c0-0.2,0-0.4,0-0.6c0-0.2,0-0.4,0-0.7v0c0-0.3,0-0.5,0-0.8v0c0-0.2,0-0.4,0-0.7
	c0-0.1,0-0.2,0-0.3c0-0.2,0-0.4,0-0.6c0-0.2,0-0.4,0-0.6c0-0.1,0-0.3,0-0.4c0-0.3,0-0.7,0-1c0-0.1,0-0.2,0-0.2v0c0-0.4,0-0.9,0-1.3
	c0-0.3-0.1-0.6-0.1-1c0-0.3,0-0.5,0-0.8c0-0.1,0-0.1,0-0.2c0-0.3,0-0.5,0-0.8c0-0.2,0-0.4,0-0.6c0-0.1,0-0.3,0-0.4c0-0.3,0-0.7,0-1
	v0c0-0.1,0-0.2,0-0.3c0-0.2,0-0.4,0-0.7c0-0.2,0-0.4,0-0.7c0-0.3,0-0.7,0-1c0-0.1,0-0.2,0-0.4c0-0.1,0-0.2,0-0.3c0-0.1,0-0.3,0-0.4
	v0l0,0c0-0.1,0-0.1,0-0.2v0c0-0.3,0-0.5,0-0.8c0-0.1,0-0.2,0-0.4c0-0.2,0-0.5,0-0.7c0-0.2,0-0.3,0-0.5c0-0.1,0-0.2,0-0.3
	c0-0.2,0-0.5,0-0.7c0-0.2,0-0.3,0-0.5c0-0.2,0-0.3,0-0.5v0c0-0.2,0-0.3,0-0.5c0,0,0,0,0,0v0c0-0.1,0-0.1,0-0.2v0c0-0.3,0-0.5,0-0.8
	c0-0.2,0-0.4,0-0.6c0-0.2,0-0.4,0-0.7c0-0.3,0-0.7,0-1c0-0.2,0-0.5,0-0.7c0,0,0-0.1,0-0.1c0-0.1,0-0.1,0-0.2c0-0.3,0-0.5,0-0.8
	c0-0.3,0-0.5,0-0.8c0-0.2,0-0.5,0-0.7v0c0-0.2,0-0.3,0-0.5c0,0,0,0,0,0c0-0.2,0-0.3,0-0.5c0,0,0,0,0,0c0,0,0,0,0-0.1
	c0-0.2,0-0.5,0-0.7c0-0.1,0-0.2,0-0.3v0c0-0.2,0-0.4,0-0.6c0-0.3,0-0.6,0-0.9c0-0.2,0-0.4,0-0.5v0c0-0.2,0-0.3,0-0.5c0,0,0,0,0,0
	c0,0,0,0,0,0c0-0.2,0-0.3,0-0.5c0-0.3,0-0.6,0-1c0,0,0,0,0,0c0,0,0,0,0,0c0-0.3-0.1-0.7-0.1-1c0-0.2,0-0.3,0-0.5c0-0.2,0-0.3,0-0.5
	c0-0.2,0-0.4,0-0.7v0c0-0.3,0-0.7,0-1c0-0.3,0-0.5,0-0.8c0-0.2,0-0.4,0-0.5c0-0.1,0-0.2,0-0.3c0-0.2,0-0.5,0-0.7c0-0.1,0-0.2,0-0.3
	c0-0.3,0-0.5,0-0.8c0-0.1,0-0.2,0-0.2c0-0.1,0-0.3,0-0.4c0-0.2,0-0.5,0-0.7c0-0.2,0-0.4,0-0.5v0c0-0.2,0-0.3,0-0.5c0,0,0,0,0,0
	c0,0,0,0,0,0c0-0.2,0-0.3,0-0.5v0c0-0.2,0-0.3,0-0.5c0,0,0,0,0,0c0-0.1,0-0.2,0-0.3c0-0.3,0-0.7,0-1c0,0,0,0,0,0c0-0.3,0-0.6,0-0.9
	c0-0.1,0-0.1,0-0.2c0-0.3,0-0.6,0-0.9c0-0.1,0-0.1,0-0.2c0,0,0,0,0,0c0,0,0,0,0,0c0,0,0,0,0,0v0c0-0.2,0-0.4,0-0.6c0,0,0,0,0,0
	c0-0.3,0-0.5,0-0.8c0,0,0,0,0,0v0c0,0,0-0.1,0-0.1c0,0,0,0,0,0c0-0.1,0-0.2,0-0.3c0-0.2,0-0.4,0-0.5c0-0.2,0-0.5,0-0.7c0,0,0,0,0,0
	c0,0,0,0,0,0c0,0,0,0,0,0v0c0-0.2,0-0.3,0-0.5c0-0.1,0-0.3,0-0.4c0-0.1,0-0.3,0-0.4c0-0.1,0-0.3,0-0.4c0-0.3,0-0.6,0-0.8v0
	c0-0.1,0-0.2,0-0.3c0,0,0-0.1,0-0.1c0-0.1,0-0.2,0-0.3c0-0.2,0-0.5,0-0.7c0-0.2,0-0.5,0-0.7v0c0,0,0,0,0,0c0-0.1,0-0.1,0-0.2
	c0-0.3,0-0.5,0-0.8c0-0.3,0-0.6,0-0.9c0-0.1,0-0.2,0-0.3c0-0.1,0-0.1,0-0.2v0c0-0.2,0-0.3,0-0.5c0-0.2,0-0.3,0-0.5
	c0-0.2,0-0.4,0-0.6v0c0-0.1,0-0.3,0-0.4c0-0.1,0-0.1,0-0.2c0-0.1,0-0.2,0-0.2c0-0.2,0-0.4,0-0.6l0,0v0c0-0.2,0-0.4,0-0.6v0
	c0,0,0-0.1,0-0.1c0-0.2,0-0.4,0-0.6v0c0,0,0,0,0,0c0,0,0-0.1,0-0.1c0-0.2,0-0.4,0-0.5v0c0-0.1,0-0.2,0-0.4c0-0.2,0-0.4,0-0.6
	c0-0.1,0-0.2,0-0.3c0-0.2,0-0.5,0-0.7c0-0.2,0-0.3,0-0.5c0-0.2,0-0.3,0-0.5c0-0.2,0-0.3,0-0.5c0-0.2,0-0.3,0-0.5v0
	c0-0.2,0-0.4,0-0.6c0-0.1,0-0.2,0-0.3c0-0.3,0-0.6,0-0.8c0,0,0-0.1,0-0.1v0c0-0.1,0-0.3,0-0.4v0c0,0,0,0,0,0c0,0,0,0,0,0v0
	c0,0,0,0,0,0c0,0,0-0.1,0-0.1c0-0.1,0-0.3,0-0.4c0-0.1,0-0.1,0-0.2c0-0.1,0-0.1,0-0.2c0-0.1,0-0.2,0-0.3c0-0.2,0-0.3,0-0.5
	c0-0.2,0-0.4,0-0.6c0-0.2,0-0.3,0-0.5c0-0.1,0-0.1,0-0.2c0-0.2,0-0.4,0-0.6c0,0,0,0,0,0c0,0,0,0,0,0c0,0,0,0,0,0c0-0.1,0-0.3,0-0.4
	v0c0,0,0-0.1,0-0.1v0c0,0,0,0,0,0c0,0,0,0,0-0.1c0-0.2,0-0.4,0-0.5c0-0.3,0-0.6,0-0.8c0-0.2,0-0.3,0-0.5c0-0.1,0-0.3,0-0.4v0
	c0-0.2,0-0.4,0-0.6c0-0.2,0-0.4,0-0.5v0c0-0.3,0-0.5,0-0.8c0-0.3,0-0.5,0-0.8c0-0.2,0-0.4,0-0.5c0-0.2,0-0.3,0-0.5
	c0-0.2,0-0.3,0-0.5v0c0-0.2,0-0.3,0-0.5c0,0,0,0,0,0c0,0,0,0,0,0c0-0.2,0-0.3,0-0.5v0c0-0.2,0-0.4,0-0.6v0c0-0.1,0-0.1,0-0.2v0
	c0,0,0,0,0,0c0,0,0,0,0,0v0c0-0.2,0-0.3,0-0.5c0-0.1,0-0.3,0-0.4c0-0.2,0-0.4,0-0.6c0-0.2,0-0.4,0-0.6c0-0.2,0-0.3,0-0.5
	c0-0.3,0-0.6,0-0.9c0-0.1,0-0.3,0-0.4v0c0-0.3,0-0.5,0-0.8c0-0.1,0-0.2,0-0.3v0c0-0.3,0-0.7,0-1c0,0,0-0.1,0-0.1c0,0,0,0,0,0
	c0-0.3,0-0.7,0-1c0-0.4,0-0.8,0-1.2c0-0.2,0-0.5,0-0.7v0c0-0.2,0-0.4,0-0.6c0-0.3,0-0.7,0-1c0-0.1,0-0.1,0-0.2c0,0,0-0.1,0-0.1
	c0,0,0,0,0,0v0c0-0.2,0-0.4,0-0.6c0-0.3,0-0.7,0-1c0-0.1,0-0.2,0-0.4v0c0,0,0,0,0,0c0-0.2,0-0.4,0-0.6c0-0.3,0-0.7,0-1
	c0-0.1,0-0.2,0-0.2v0c0-0.2,0-0.5,0-0.7c0,0,0,0,0,0c0,0,0-0.1,0-0.1c0-0.4,0-0.7,0-1.1c0-0.3,0-0.6,0-0.9l0,0c0,0,0,0,0-0.1
	c0-0.4,0-0.7,0-1.1c0-0.3,0-0.6,0-0.9v0c0,0,0,0,0,0c0,0,0,0,0,0c0-0.1,0-0.2,0-0.2v0c0-0.3,0-0.5,0-0.8c0-0.4,0-0.7,0-1.1
	c0,0,0,0,0,0c0-0.3,0-0.6,0-1c0-0.1,0-0.2,0-0.3c0-0.4,0-0.7,0-1.1c0,0,0,0,0,0c0-0.3,0-0.6,0-1c0,0,0,0,0,0c0-0.2,0-0.3,0-0.5
	c0,0,0-0.1,0-0.1c0-0.1,0-0.2,0-0.4v0c0-0.2,0-0.4,0-0.6c0-0.2,0-0.5,0-0.7c0,0,0,0,0,0c0,0,0,0,0,0v0c0-0.1,0-0.3,0-0.4
	c0,0,0-0.1,0-0.1c0-0.2,0-0.3,0-0.5c0-0.2,0-0.4,0-0.6v0c0-0.3,0-0.6,0-0.9c0-0.4,0-0.7,0-1.1c-0.1-0.5,0-1,0-1.6
	c-0.1-0.5-0.1-1,0-1.6c-0.1-0.6,0-1.2,0.1-1.8c-0.1-0.7-0.2-1.3-0.1-2c-0.1-0.4,0-0.9,0-1.3c-0.1-0.3-0.1-0.6-0.1-0.9
	c0-0.8,0-1.6,0-2.3c0-0.5,0-0.9,0.1-1.4c0-0.1,0-0.1,0-0.2l0-0.1c-0.2-0.6-0.2-1.3-0.1-1.9c0-0.2,0-0.3,0-0.5c0-0.5,0-1.1,0.2-1.6
	c0-0.2,0-0.3,0-0.5c0-0.1,0-0.2,0-0.4c0-0.2,0-0.4,0-0.6c0-0.5,0-0.9,0-1.4c0-0.6,0-1.1-0.1-1.7c0-0.4,0-0.7,0.1-1
	c-0.1-0.5-0.1-1,0-1.5c-0.1-0.4-0.2-0.8-0.2-1.2c0-0.5,0-1,0.1-1.5c-0.1-0.4-0.1-0.8-0.1-1.2c0-0.1,0-0.2,0-0.3c0-0.2,0-0.5,0-0.7
	c-0.1-0.6-0.1-1.2,0-1.7c-0.1-0.6-0.1-1.2,0-1.8c-0.1-0.7-0.1-1.4,0-2c0-0.1,0-0.1,0-0.1c-0.1-0.5-0.1-0.9,0-1.4
	c-0.1-0.6,0-1.2,0.1-1.7c0,0,0,0,0,0c-0.1-0.6-0.1-1.1,0-1.7c-0.1-0.5-0.1-1-0.1-1.6c-0.1-0.5,0-1.1,0.1-1.6c0-0.1,0-0.2,0-0.3
	c0-0.2-0.1-0.3-0.1-0.5c-0.1-0.8,0.1-1.6,0.1-2.5c0-0.2,0-0.3,0.1-0.5c-0.2-0.8-0.2-1.7,0-2.6c-0.1-0.5-0.2-1-0.1-1.5
	c0-0.2,0-0.3,0-0.5c0,0,0,0,0,0c0-0.2,0-0.3,0-0.5c0,0,0,0,0,0c0-0.2,0-0.3,0.1-0.5c0,0,0,0,0,0c-0.2-0.8-0.2-1.7,0-2.5
	c-0.2-0.9-0.2-1.8,0-2.7c-0.2-0.6-0.2-1.3-0.1-2c-0.1-0.6,0-1.2,0.1-1.7c0-0.3,0-0.7,0.1-1c0-0.1,0-0.2,0-0.2c0,0,0,0,0-0.1
	c0-0.1,0-0.2,0-0.3c-0.2-0.8-0.3-1.6-0.1-2.5c-0.1-0.7-0.1-1.4,0-2.2c0-0.1,0-0.1,0-0.2v-0.6c0-0.2,0-0.4,0-0.6
	c-0.2-0.8-0.2-1.5,0-2.3c0-0.3,0-0.6,0.1-1c0-0.1,0-0.1,0-0.2c-0.2-0.9-0.2-1.9,0-2.8c0-1.1,0-2.1,0-3.2c-0.1-0.7-0.2-1.3-0.1-2
	c-0.1-0.6-0.1-1.3,0.1-1.9v-1.8c0-0.3,0-0.5,0.1-0.7c-0.2-0.7-0.2-1.5-0.1-2.2c0-0.3,0-0.6,0-0.9c0-0.3,0-0.6,0.1-0.9
	c-0.1-0.6-0.2-1.2-0.1-1.8c-0.1-0.6,0-1.2,0.1-1.7c-0.2-0.8-0.1-1.7,0.1-2.5c-0.2-2.6-0.2-5.1-0.1-7.7c-0.1-0.4-0.1-0.8-0.1-1.2
	c0-1.7,0.1-3.5,0.2-5.3c0-0.1,0-0.1,0-0.2v-2.2c0-0.2,0-0.4,0-0.7v-1.2c0-0.2,0-0.5,0.1-0.7c-0.1-0.4-0.1-0.7-0.1-1
	c0-0.3,0.1-0.6,0.1-0.9c0-0.6-0.1-1.3,0-1.9c0-0.1,0-0.2,0-0.2c0-0.2,0-0.4,0-0.6c0-0.1,0-0.1,0-0.2c0-0.3,0-0.5-0.1-0.8
	c-0.1-0.5,0-1,0.2-1.4c0,0,0,0,0-0.1c-0.1-0.7-0.2-1.4-0.1-2.1c0-0.7,0-1.5,0-2.2c0,0,0-0.1,0-0.1c0-0.3-0.1-0.5-0.1-0.8
	c0-0.5,0-0.9,0-1.4c0-0.2-0.1-0.5-0.1-0.7c0-2.6-0.2-5.2,0.1-7.8C1920.2,259.2,1920.2,258.9,1920.3,258.6z"/>
<path class="st2" d="M1920,212.9c0-0.1,0-0.3,0-0.4c0-0.5,0-0.9,0-1.3v-9.7c0,0,0-0.1,0-0.1v-0.1c0,0,0,0,0,0c0,0,0,0,0,0v0
	c0,0,0,0,0,0V0H0v659l45.7-2.2c45.6-2.1,137-6.5,228.5-26.1c91.5-19.7,183.1-54.7,274.6-92.5c91.5-37.9,182.9-78.5,274.2-95.9
	c91.3-17.3,182.7-11.3,274-8.1c91.3,3.1,182.7,3.5,274.2,3.6c91.5,0.2,183.1,0.2,274.6,5.5c91.5,5.4,182.9,16,228.5,21.4l45.7,5.3
	v-48.1c0,0,0,0,0-0.1v-0.5c0,0,0,0,0-0.1v-0.3c0,0,0,0,0-0.1v-1.2c0,0,0,0,0-0.1v-0.7c0,0,0,0,0-0.1v-1.6c0,0,0,0,0-0.1v-0.3
	c0,0,0,0,0-0.1v-0.5c0,0,0,0,0-0.1V416c0,0,0,0,0-0.1V415c0,0,0,0,0-0.1v-0.1c0,0,0,0,0-0.1v-0.3c0,0,0,0,0-0.1v-0.1c0,0,0,0,0-0.1
	v-0.3c0,0,0,0,0-0.1v-0.3c0,0,0,0,0-0.1v-0.5c0,0,0,0,0-0.1v-0.5c0,0,0,0,0-0.1V412c0,0,0,0,0-0.1v-1.2c0,0,0,0,0-0.1v-0.5
	c0,0,0,0,0-0.1v-1.3c0,0,0,0,0-0.1v-0.5c0,0,0,0,0-0.1v-1.3c0,0,0,0,0-0.1v-0.9c0,0,0,0,0-0.1v-0.5c0,0,0,0,0-0.1v-1.3
	c0,0,0,0,0-0.1v-0.5c0,0,0,0,0-0.1v-0.3c0,0,0,0,0-0.1v-0.9c0,0,0,0,0-0.1v-0.1c0,0,0,0,0-0.1v-0.7c0,0,0,0,0-0.1v-0.9
	c0,0,0,0,0-0.1v-0.3c0,0,0,0,0-0.1v-0.1c0,0,0,0,0-0.1v-0.3c0,0,0,0,0-0.1v-0.3c0,0,0,0,0-0.1v-0.1c0,0,0,0,0-0.1v-0.3
	c0,0,0,0,0-0.1v-0.9c0,0,0,0,0-0.1v-0.5c0,0,0,0,0-0.1v-1.3c0,0,0,0,0-0.1V393c0,0,0,0,0-0.1v-1.2c0,0,0,0,0-0.1v-2.4c0,0,0,0,0-0.1
	v-1.6c0,0,0,0,0-0.1v-0.8c0-0.2,0-0.3,0-0.5c0-0.7,0-1.3,0-2v-0.7c0,0,0,0,0-0.1v-2.3c0-0.1,0-0.2,0-0.3v-1c0,0,0,0,0-0.1v-0.3
	c0,0,0,0,0-0.1v-9.6c0,0,0,0,0-0.1v-0.3c0,0,0,0,0-0.1v-4c0,0,0,0,0-0.1v-2c0,0,0,0,0-0.1v-3.8c0,0,0,0,0-0.1v-1.2c0,0,0,0,0-0.1
	v-3.8c0,0,0,0,0-0.1v-1.2c0,0,0,0,0-0.1v-6c0,0,0,0,0-0.1V345c0,0,0,0,0-0.1v-0.3c0,0,0,0,0-0.1v-2.4c0,0,0,0,0-0.1v-2.6
	c0,0,0,0,0-0.1v-2.8c0,0,0,0,0-0.1v-1.2c0,0,0,0,0-0.1v-4.2c0,0,0,0,0-0.1v-2c0,0,0,0,0-0.1v-3.7c0,0,0,0,0-0.1V322c0,0,0,0,0-0.1
	v-5.8c0,0,0,0,0-0.1v-1.6c0,0,0,0,0-0.1v-5c0,0,0,0,0-0.1v-3.8c0,0,0,0,0-0.1v-1.2c0,0,0,0,0-0.1v-2.2c0,0,0,0,0-0.1v-9.7
	c0-0.2,0-0.4,0-0.6c0-0.7,0-1.4,0-2V276c0-0.1,0-0.3,0-0.4v-2.1c0,0,0,0,0-0.1v-6.5c0-1.9-0.1-3.7,0-5.6V212.9z"/>
<path class="st3" d="M1920,212.9c0-0.1,0-0.3,0-0.4c0-0.5,0-0.9,0-1.3v-9.7c0,0,0-0.1,0-0.1v-0.1c0,0,0,0,0,0c0,0,0,0,0,0v0
	c0,0,0,0,0,0V0H0v473l45.7-12.3c45.6-12.4,137-37,228.5-63.2s183.1-53.8,274.6-43.3s182.9,59.1,274.2,83.5
	c91.3,24.3,182.7,24.3,274,18.8s182.7-16.5,274.2-22s183.1-5.5,274.6,0.7c91.5,6.1,182.9,18.5,228.5,24.6l45.7,6.2v-44.1
	c0,0,0,0,0-0.1v-0.5c0,0,0,0,0-0.1v-0.3c0,0,0,0,0-0.1v-1.2c0,0,0,0,0-0.1v-0.7c0,0,0,0,0-0.1v-1.6c0,0,0,0,0-0.1v-0.3
	c0,0,0,0,0-0.1v-0.5c0,0,0,0,0-0.1V416c0,0,0,0,0-0.1V415c0,0,0,0,0-0.1v-0.1c0,0,0,0,0-0.1v-0.3c0,0,0,0,0-0.1v-0.1c0,0,0,0,0-0.1
	v-0.3c0,0,0,0,0-0.1v-0.3c0,0,0,0,0-0.1v-0.5c0,0,0,0,0-0.1v-0.5c0,0,0,0,0-0.1V412c0,0,0,0,0-0.1v-1.2c0,0,0,0,0-0.1v-0.5
	c0,0,0,0,0-0.1v-1.3c0,0,0,0,0-0.1v-0.5c0,0,0,0,0-0.1v-1.3c0,0,0,0,0-0.1v-0.9c0,0,0,0,0-0.1v-0.5c0,0,0,0,0-0.1v-1.3
	c0,0,0,0,0-0.1v-0.5c0,0,0,0,0-0.1v-0.3c0,0,0,0,0-0.1v-0.9c0,0,0,0,0-0.1v-0.1c0,0,0,0,0-0.1v-0.7c0,0,0,0,0-0.1v-0.9
	c0,0,0,0,0-0.1v-0.3c0,0,0,0,0-0.1v-0.1c0,0,0,0,0-0.1v-0.3c0,0,0,0,0-0.1v-0.3c0,0,0,0,0-0.1v-0.1c0,0,0,0,0-0.1v-0.3
	c0,0,0,0,0-0.1v-0.9c0,0,0,0,0-0.1v-0.5c0,0,0,0,0-0.1v-1.3c0,0,0,0,0-0.1V393c0,0,0,0,0-0.1v-1.2c0,0,0,0,0-0.1v-2.4c0,0,0,0,0-0.1
	v-1.6c0,0,0,0,0-0.1v-0.8c0-0.2,0-0.3,0-0.5c0-0.7,0-1.3,0-2v-0.7c0,0,0,0,0-0.1v-2.3c0-0.1,0-0.2,0-0.3v-1c0,0,0,0,0-0.1v-0.3
	c0,0,0,0,0-0.1v-9.6c0,0,0,0,0-0.1v-0.3c0,0,0,0,0-0.1v-4c0,0,0,0,0-0.1v-2c0,0,0,0,0-0.1v-3.8c0,0,0,0,0-0.1v-1.2c0,0,0,0,0-0.1
	v-3.8c0,0,0,0,0-0.1v-1.2c0,0,0,0,0-0.1v-6c0,0,0,0,0-0.1V345c0,0,0,0,0-0.1v-0.3c0,0,0,0,0-0.1v-2.4c0,0,0,0,0-0.1v-2.6
	c0,0,0,0,0-0.1v-2.8c0,0,0,0,0-0.1v-1.2c0,0,0,0,0-0.1v-4.2c0,0,0,0,0-0.1v-2c0,0,0,0,0-0.1v-3.7c0,0,0,0,0-0.1V322c0,0,0,0,0-0.1
	v-5.8c0,0,0,0,0-0.1v-1.6c0,0,0,0,0-0.1v-5c0,0,0,0,0-0.1v-3.8c0,0,0,0,0-0.1v-1.2c0,0,0,0,0-0.1v-2.2c0,0,0,0,0-0.1v-9.7
	c0-0.2,0-0.4,0-0.6c0-0.7,0-1.4,0-2V276c0-0.1,0-0.3,0-0.4v-2.1c0,0,0,0,0-0.1v-6.5c0-1.9-0.1-3.7,0-5.6V212.9z"/>
<path class="st0" d="M0,201.5v39.7"/>
<path class="st0" d="M0,241.2V263l45.7,0.5c45.6,0.5,137,1.5,228.5-2.7c91.5-4.1,183.1-13.5,274.6-28s182.9-34.1,274.2-29.3
	s182.7,34.2,274,31.3c91.3-2.8,182.7-37.8,274.2-50.5c91.5-12.6,183.1-3,274.6-2.8s182.9-9.2,228.5-13.8l45.7-4.7V0h-45.7
	c-45.6,0-137,0-228.5,0s-183.1,0-274.6,0S1188.3,0,1097,0S914.3,0,823,0S640.3,0,548.8,0S365.7,0,274.2,0S91.3,0,45.7,0H0v201.5"/>
</svg>
